<svg width="108" height="95" viewBox="0 0 108 95" fill="none" xmlns="http://www.w3.org/2000/svg">
<rect width="108" height="95" fill="#D4D4D4" fill-opacity="0.75"/>
<path d="M68.3016 36.2979C67.3523 34.8928 65.7914 34.0625 64.125 34.0625C62.4586 34.0625 60.8766 34.8928 59.9484 36.2979L41.5969 63.4627L36.007 56.416C35.0367 55.2025 33.5812 54.5 32.0625 54.5C30.5438 54.5 29.0672 55.2025 28.118 56.416L14.618 73.4473C13.3945 74.9801 13.1625 77.0877 14.0063 78.8547C14.85 80.6217 16.6219 81.75 18.5625 81.75H38.8125H45.5625H89.4375C91.3148 81.75 93.0445 80.7068 93.9094 79.025C94.7742 77.3432 94.6687 75.3207 93.6141 73.7666L68.3016 36.2979ZM23.625 34.0625C26.3103 34.0625 28.8857 32.9859 30.7845 31.0695C32.6833 29.1531 33.75 26.5539 33.75 23.8438C33.75 21.1336 32.6833 18.5344 30.7845 16.618C28.8857 14.7016 26.3103 13.625 23.625 13.625C20.9397 13.625 18.3643 14.7016 16.4655 16.618C14.5667 18.5344 13.5 21.1336 13.5 23.8438C13.5 26.5539 14.5667 29.1531 16.4655 31.0695C18.3643 32.9859 20.9397 34.0625 23.625 34.0625Z" fill="white" fill-opacity="0.5"/>
</svg>
