<svg width="352" height="314" viewBox="0 0 352 314" fill="none" xmlns="http://www.w3.org/2000/svg">
<path d="M26.3655 313.749C19.115 313.749 12.9081 311.168 7.74487 306.005C2.58162 300.841 0 294.634 0 287.384V5.2731C0 3.73511 0.659138 2.69148 1.97741 2.1422C3.29569 1.59292 4.54072 1.90418 5.71252 3.07598L24.6078 21.9713C25.9659 23.436 27.5505 24.1684 29.3615 24.1684C31.1725 24.1684 32.8104 23.436 34.2752 21.9713L53.6099 2.19713C54.968 0.732375 56.5525 0 58.3636 0C60.1746 0 61.8125 0.732375 63.2772 2.19713L83.0513 21.9713C84.4094 23.436 85.994 24.1684 87.805 24.1684C89.616 24.1684 91.2539 23.436 92.7187 21.9713L112.493 2.19713C113.851 0.732375 115.435 0 117.247 0C119.058 0 120.695 0.732375 122.16 2.19713L141.495 21.9713C142.853 23.436 144.438 24.1684 146.249 24.1684C148.06 24.1684 149.697 23.436 151.162 21.9713L170.936 2.19713C172.294 0.732375 173.879 0 175.69 0C177.501 0 179.139 0.732375 180.604 2.19713L200.378 21.9713C201.736 23.436 203.32 24.1684 205.132 24.1684C206.943 24.1684 208.58 23.436 210.045 21.9713L229.38 2.19713C230.738 0.732375 232.323 0 234.134 0C235.945 0 237.582 0.732375 239.047 2.19713L258.821 21.9713C260.179 23.436 261.764 24.1684 263.575 24.1684C265.386 24.1684 267.024 23.436 268.489 21.9713L288.263 2.19713C289.621 0.732375 291.205 0 293.017 0C294.828 0 296.465 0.732375 297.93 2.19713L317.265 21.9713C318.623 23.436 320.208 24.1684 322.019 24.1684C323.83 24.1684 325.467 23.436 326.932 21.9713L345.827 3.07598C346.999 1.90418 348.244 1.59292 349.563 2.1422C350.881 2.69148 351.54 3.73511 351.54 5.2731V287.384C351.54 294.634 348.958 300.841 343.795 306.005C338.632 311.168 332.425 313.749 325.175 313.749H26.3655Z" fill="#E7E7E8"/>
<path d="M328.461 135.922H199.201C198.648 135.922 198.201 136.37 198.201 136.922V145.475C198.201 146.028 198.648 146.475 199.201 146.475H328.461C329.013 146.475 329.461 146.028 329.461 145.475V136.922C329.461 136.37 329.013 135.922 328.461 135.922Z" fill="#C3C3C3"/>
<path d="M328.461 157.891H199.201C198.648 157.891 198.201 158.338 198.201 158.891V167.444C198.201 167.996 198.648 168.444 199.201 168.444H328.461C329.013 168.444 329.461 167.996 329.461 167.444V158.891C329.461 158.338 329.013 157.891 328.461 157.891Z" fill="#C3C3C3"/>
<path d="M328.461 179.87H199.201C198.648 179.87 198.201 180.318 198.201 180.87V189.423C198.201 189.976 198.648 190.423 199.201 190.423H328.461C329.013 190.423 329.461 189.976 329.461 189.423V180.87C329.461 180.318 329.013 179.87 328.461 179.87Z" fill="#C3C3C3"/>
<path d="M328.461 201.85H199.201C198.648 201.85 198.201 202.297 198.201 202.85V211.403C198.201 211.955 198.648 212.403 199.201 212.403H328.461C329.013 212.403 329.461 211.955 329.461 211.403V202.85C329.461 202.297 329.013 201.85 328.461 201.85Z" fill="#C3C3C3"/>
<path d="M328.461 223.829H199.201C198.648 223.829 198.201 224.277 198.201 224.829V233.382C198.201 233.935 198.648 234.382 199.201 234.382H328.461C329.013 234.382 329.461 233.935 329.461 233.382V224.829C329.461 224.277 329.013 223.829 328.461 223.829Z" fill="#C3C3C3"/>
<path d="M328.469 245.798H199.201C198.648 245.798 198.201 246.246 198.201 246.798V255.345C198.201 255.897 198.648 256.345 199.201 256.345H328.469C329.021 256.345 329.469 255.897 329.469 255.345V246.798C329.469 246.246 329.021 245.798 328.469 245.798Z" fill="#C3C3C3"/>
<path d="M328.469 267.788H199.201C198.648 267.788 198.201 268.236 198.201 268.788V277.341C198.201 277.893 198.648 278.341 199.201 278.341H328.469C329.021 278.341 329.469 277.893 329.469 277.341V268.788C329.469 268.236 329.021 267.788 328.469 267.788Z" fill="#C3C3C3"/>
<rect x="21.9713" y="63.9164" width="307.598" height="49.9347" rx="2.5" fill="#609400" fill-opacity="0.75"/>
<path fill-rule="evenodd" clip-rule="evenodd" d="M35.6847 246.589C37.8419 245.33 39.8193 243.713 41.2574 241.555C44.1337 237.96 45.5718 233.106 46.1111 228.433C46.6504 223.759 46.6504 219.085 46.6504 214.231V213.872V193.918V189.244C46.6504 187.446 46.6504 185.469 47.0099 183.491C47.3694 181.514 48.0885 179.716 49.1671 178.098C51.1445 174.863 54.56 172.526 57.7958 170.368L71.9972 161.021H47.0099C45.2122 161.021 43.5944 161.021 41.9765 160.481C40.5384 159.942 39.1002 158.864 38.0217 157.605C36.4038 155.987 35.5049 153.83 34.7859 151.493C34.2466 149.336 34.0668 146.999 33.8871 144.662C33.8871 139.988 34.4264 135.494 35.6847 131L39.6395 131.18C39.8193 132.438 40.3586 133.876 41.2574 134.955C42.1562 136.033 43.2348 137.112 44.4932 137.651C45.7515 138.37 47.1897 138.73 48.448 138.91C49.8861 139.089 51.3242 139.089 52.7624 139.089H101.838C109.388 139.089 116.938 139.629 123.949 142.505C130.96 145.381 136.892 150.415 141.207 156.347C148.757 166.953 151.993 180.076 152.712 193.019C153.431 205.602 151.813 218.186 148.397 230.05C146.6 236.702 144.083 242.993 141.027 249.105L96.0857 273.913C87.457 267.801 77.0306 264.206 66.4245 263.846C52.7624 263.666 39.1002 268.7 29.0334 277.868H24C31.5501 263.307 45.2122 251.982 61.0316 246.948C64.2673 243.713 67.3233 240.477 70.1996 237.061C72.177 234.545 73.9746 232.028 74.8734 229.152C75.952 226.275 76.1318 223.219 76.1318 219.804V201.468V187.446C76.1318 182.053 76.3116 176.301 78.4687 170.728C79.7271 167.133 81.7045 163.897 84.2212 161.021H78.4687C75.5925 163.537 72.896 166.414 71.4579 169.829C70.0198 173.245 69.84 177.2 69.84 180.975V194.996V213.332C69.84 216.928 69.6603 220.523 68.7614 223.938C67.8626 227.354 66.4245 230.59 64.4471 233.286C58.1553 242.454 47.9087 248.207 37.3026 250.903L35.6847 246.589ZM118.377 257.195C111.725 252.161 103.995 248.386 95.7262 246.229V222.86L128.443 206.142C128.443 213.692 127.724 221.062 126.466 228.433C124.848 238.32 122.152 248.027 118.377 257.195ZM95.7262 197.513V161.2C99.8607 161.2 103.995 161.38 107.77 162.818C111.905 164.256 115.68 166.773 118.736 170.189C121.792 173.784 123.949 177.919 125.387 182.413L95.7262 197.513ZM90.6927 162.099V245.151C83.8617 244.072 76.8508 243.892 70.0198 244.971C71.4579 243.353 72.7163 241.915 73.9746 240.297C76.3116 237.601 78.4687 234.365 79.7271 230.769C80.9854 227.174 81.1652 223.399 81.1652 219.984V201.648V187.626C81.1652 182.233 81.5247 177.02 83.1426 172.526C84.5807 168.391 87.2772 164.796 90.6927 162.099ZM95.7262 217.107V203.265L126.825 187.626C127.545 191.221 128.084 194.817 128.264 198.412C128.264 199.131 128.264 199.85 128.443 200.569L95.7262 217.107Z" fill="url(#paint0_linear_14_50)"/>
<path fill-rule="evenodd" clip-rule="evenodd" d="M175.77 0.000477375V313.59H23.3058C17.3534 312.955 12.1665 310.426 7.74487 306.005C2.58162 300.841 0 294.634 0 287.384V5.2731C0 3.73511 0.659138 2.69148 1.97741 2.1422C3.29569 1.59292 4.54072 1.90418 5.71252 3.07598L24.6078 21.9713C25.9659 23.436 27.5505 24.1684 29.3615 24.1684C31.1725 24.1684 32.8104 23.436 34.2752 21.9713L53.6099 2.19713C54.968 0.732375 56.5525 0 58.3636 0C60.1746 0 61.8125 0.732375 63.2772 2.19713L83.0513 21.9713C84.4094 23.436 85.994 24.1684 87.805 24.1684C89.616 24.1684 91.2539 23.436 92.7187 21.9713L112.493 2.19713C113.851 0.732375 115.435 0 117.247 0C119.058 0 120.695 0.732375 122.16 2.19713L141.495 21.9713C142.853 23.436 144.438 24.1684 146.249 24.1684C148.06 24.1684 149.697 23.436 151.162 21.9713L170.936 2.19713C172.294 0.732375 173.879 0 175.69 0C175.717 0 175.743 0.000159125 175.77 0.000477375Z" fill="black" fill-opacity="0.05"/>
<defs>
<linearGradient id="paint0_linear_14_50" x1="15.1915" y1="122.311" x2="157.006" y2="280.105" gradientUnits="userSpaceOnUse">
<stop stop-color="#333333"/>
<stop offset="1" stop-opacity="0.75"/>
</linearGradient>
</defs>
</svg>
