<svg width="352" height="314" viewBox="0 0 352 314" fill="none" xmlns="http://www.w3.org/2000/svg">
<path d="M26.3655 313.749C19.115 313.749 12.9081 311.168 7.74487 306.005C2.58162 300.841 0 294.634 0 287.384V5.2731C0 3.73511 0.659138 2.69148 1.97741 2.1422C3.29569 1.59292 4.54072 1.90418 5.71252 3.07598L24.6078 21.9713C25.9659 23.436 27.5505 24.1684 29.3615 24.1684C31.1725 24.1684 32.8104 23.436 34.2752 21.9713L53.6099 2.19713C54.968 0.732375 56.5525 0 58.3636 0C60.1746 0 61.8125 0.732375 63.2772 2.19713L83.0513 21.9713C84.4094 23.436 85.994 24.1684 87.805 24.1684C89.616 24.1684 91.2539 23.436 92.7187 21.9713L112.493 2.19713C113.851 0.732375 115.435 0 117.247 0C119.058 0 120.695 0.732375 122.16 2.19713L141.495 21.9713C142.853 23.436 144.438 24.1684 146.249 24.1684C148.06 24.1684 149.697 23.436 151.162 21.9713L170.936 2.19713C172.294 0.732375 173.879 0 175.69 0C177.501 0 179.139 0.732375 180.604 2.19713L200.378 21.9713C201.736 23.436 203.32 24.1684 205.132 24.1684C206.943 24.1684 208.58 23.436 210.045 21.9713L229.38 2.19713C230.738 0.732375 232.323 0 234.134 0C235.945 0 237.582 0.732375 239.047 2.19713L258.821 21.9713C260.179 23.436 261.764 24.1684 263.575 24.1684C265.386 24.1684 267.024 23.436 268.489 21.9713L288.263 2.19713C289.621 0.732375 291.205 0 293.017 0C294.828 0 296.465 0.732375 297.93 2.19713L317.265 21.9713C318.623 23.436 320.208 24.1684 322.019 24.1684C323.83 24.1684 325.467 23.436 326.932 21.9713L345.827 3.07598C346.999 1.90418 348.244 1.59292 349.563 2.1422C350.881 2.69148 351.54 3.73511 351.54 5.2731V287.384C351.54 294.634 348.958 300.841 343.795 306.005C338.632 311.168 332.425 313.749 325.175 313.749H26.3655Z" fill="#E7E7E8"/>
<path d="M328.461 135.922H199.201C198.648 135.922 198.201 136.37 198.201 136.922V145.475C198.201 146.028 198.648 146.475 199.201 146.475H328.461C329.013 146.475 329.461 146.028 329.461 145.475V136.922C329.461 136.37 329.013 135.922 328.461 135.922Z" fill="#C3C3C3"/>
<path d="M328.461 157.891H199.201C198.648 157.891 198.201 158.338 198.201 158.891V167.444C198.201 167.996 198.648 168.444 199.201 168.444H328.461C329.013 168.444 329.461 167.996 329.461 167.444V158.891C329.461 158.338 329.013 157.891 328.461 157.891Z" fill="#C3C3C3"/>
<path d="M328.461 179.87H199.201C198.648 179.87 198.201 180.318 198.201 180.87V189.423C198.201 189.976 198.648 190.423 199.201 190.423H328.461C329.013 190.423 329.461 189.976 329.461 189.423V180.87C329.461 180.318 329.013 179.87 328.461 179.87Z" fill="#C3C3C3"/>
<path d="M328.461 201.85H199.201C198.648 201.85 198.201 202.297 198.201 202.85V211.403C198.201 211.955 198.648 212.403 199.201 212.403H328.461C329.013 212.403 329.461 211.955 329.461 211.403V202.85C329.461 202.297 329.013 201.85 328.461 201.85Z" fill="#C3C3C3"/>
<path d="M328.461 223.829H199.201C198.648 223.829 198.201 224.277 198.201 224.829V233.382C198.201 233.935 198.648 234.382 199.201 234.382H328.461C329.013 234.382 329.461 233.935 329.461 233.382V224.829C329.461 224.277 329.013 223.829 328.461 223.829Z" fill="#C3C3C3"/>
<path d="M328.469 245.798H199.201C198.648 245.798 198.201 246.246 198.201 246.798V255.345C198.201 255.897 198.648 256.345 199.201 256.345H328.469C329.021 256.345 329.469 255.897 329.469 255.345V246.798C329.469 246.246 329.021 245.798 328.469 245.798Z" fill="#C3C3C3"/>
<path d="M328.469 267.788H199.201C198.648 267.788 198.201 268.236 198.201 268.788V277.341C198.201 277.893 198.648 278.341 199.201 278.341H328.469C329.021 278.341 329.469 277.893 329.469 277.341V268.788C329.469 268.236 329.021 267.788 328.469 267.788Z" fill="#C3C3C3"/>
<rect x="21.9713" y="63.9164" width="307.598" height="49.9347" rx="2.5" fill="#609400" fill-opacity="0.75"/>
<rect x="21.9713" y="63.9164" width="307.598" height="49.9347" rx="2.5" stroke="black"/>
<path fill-rule="evenodd" clip-rule="evenodd" d="M42.4644 246.118C44.6216 244.86 46.599 243.242 48.0372 241.085C50.9134 237.489 52.3515 232.636 52.8908 227.962C53.4301 223.288 53.4301 218.614 53.4301 213.76V213.401V193.447V188.773C53.4301 186.975 53.4301 184.998 53.7896 183.021C54.1492 181.043 54.8682 179.245 55.9468 177.628C57.9242 174.392 61.3397 172.055 64.5755 169.898L78.7769 160.55H53.7896C51.992 160.55 50.3741 160.55 48.7562 160.011C47.3181 159.471 45.88 158.393 44.8014 157.134C43.1835 155.517 42.2847 153.359 41.5656 151.022C41.0263 148.865 40.8466 146.528 40.6668 144.191C40.6668 139.517 41.2061 135.023 42.4644 130.529L46.4193 130.709C46.599 131.967 47.1383 133.405 48.0372 134.484C48.936 135.563 50.0146 136.641 51.2729 137.181C52.5313 137.9 53.9694 138.259 55.2277 138.439C56.6659 138.619 58.104 138.619 59.5421 138.619H108.618C116.168 138.619 123.718 139.158 130.729 142.034C137.74 144.91 143.672 149.944 147.986 155.876C155.536 166.482 158.772 179.605 159.491 192.548C160.21 205.132 158.592 217.715 155.177 229.58C153.379 236.231 150.863 242.523 147.807 248.635L102.865 273.442C94.2367 267.33 83.8103 263.735 73.2042 263.375C59.5421 263.196 45.88 268.229 35.8131 277.397H30.7797C38.3299 262.836 51.992 251.511 67.8113 246.478C71.047 243.242 74.1031 240.006 76.9793 236.59C78.9567 234.074 80.7543 231.557 81.6532 228.681C82.7318 225.805 82.9115 222.749 82.9115 219.333V200.997V186.975C82.9115 181.582 83.0913 175.83 85.2485 170.257C86.5068 166.662 88.4842 163.426 91.0009 160.55H85.2485C82.3722 163.067 79.6758 165.943 78.2376 169.358C76.7995 172.774 76.6198 176.729 76.6198 180.504V194.526V212.862C76.6198 216.457 76.44 220.052 75.5412 223.468C74.6423 226.883 73.2042 230.119 71.2268 232.815C64.935 241.983 54.6884 247.736 44.0823 250.432L42.4644 246.118ZM125.156 256.724C118.505 251.691 110.775 247.916 102.506 245.758V222.389L135.223 205.671C135.223 213.221 134.504 220.591 133.246 227.962C131.628 237.849 128.931 247.556 125.156 256.724ZM102.506 197.042V160.73C106.64 160.73 110.775 160.909 114.55 162.348C118.685 163.786 122.46 166.302 125.516 169.718C128.572 173.313 130.729 177.448 132.167 181.942L102.506 197.042ZM97.4725 161.629V244.68C90.6414 243.601 83.6306 243.422 76.7995 244.5C78.2376 242.882 79.496 241.444 80.7543 239.826C83.0913 237.13 85.2485 233.894 86.5068 230.299C87.7652 226.703 87.9449 222.928 87.9449 219.513V201.177V187.155C87.9449 181.762 88.3045 176.549 89.9223 172.055C91.3605 167.92 94.0569 164.325 97.4725 161.629ZM102.506 216.637V202.795L133.605 187.155C134.324 190.75 134.864 194.346 135.043 197.941C135.043 198.66 135.043 199.379 135.223 200.098L102.506 216.637Z" fill="url(#paint0_linear_14_50)"/>
<path fill-rule="evenodd" clip-rule="evenodd" d="M175.77 0.000477375V313.59H23.3058C17.3534 312.955 12.1665 310.426 7.74487 306.005C2.58162 300.841 0 294.634 0 287.384V5.2731C0 3.73511 0.659138 2.69148 1.97741 2.1422C3.29569 1.59292 4.54072 1.90418 5.71252 3.07598L24.6078 21.9713C25.9659 23.436 27.5505 24.1684 29.3615 24.1684C31.1725 24.1684 32.8104 23.436 34.2752 21.9713L53.6099 2.19713C54.968 0.732375 56.5525 0 58.3636 0C60.1746 0 61.8125 0.732375 63.2772 2.19713L83.0513 21.9713C84.4094 23.436 85.994 24.1684 87.805 24.1684C89.616 24.1684 91.2539 23.436 92.7187 21.9713L112.493 2.19713C113.851 0.732375 115.435 0 117.247 0C119.058 0 120.695 0.732375 122.16 2.19713L141.495 21.9713C142.853 23.436 144.438 24.1684 146.249 24.1684C148.06 24.1684 149.697 23.436 151.162 21.9713L170.936 2.19713C172.294 0.732375 173.879 0 175.69 0C175.717 0 175.743 0.000159125 175.77 0.000477375Z" fill="black" fill-opacity="0.05"/>
<defs>
<linearGradient id="paint0_linear_14_50" x1="21.9713" y1="121.841" x2="163.786" y2="279.634" gradientUnits="userSpaceOnUse">
<stop stop-color="#333333"/>
<stop offset="1" stop-opacity="0.75"/>
</linearGradient>
</defs>
</svg>
